# xmcd
#
# Track frame offsets:
#	150
#	17417
#	46565
#
# Disc length: 1021 seconds
# Revision: 0
# Processed by: cddbd v1.5.2PL0 Copyright (c) Steve Scherf et al.
# Submitted via: dBpowerAMP V12.0
#
DISCID=1103fb03
DTITLE=Ilse DeLange - The Lonely One [CDS-3)
DYEAR=2006
DGENRE=Pop
TTITLE0=The Lonely One
TTITLE1=The Valley (acoustic version)
TTITLE2=DATA
EXTD=
EXTT0=
EXTT1=
EXTT2=
PLAYORDER=
